<svg width="37" height="32" viewBox="0 0 37 32" fill="none" xmlns="http://www.w3.org/2000/svg">
<g clip-path="url(#clip0_10_548)">
<path d="M6.19287 23.777C6.43291 23.984 6.61683 24.234 6.73155 24.5091C6.84627 24.7842 6.88895 25.0776 6.85656 25.3685C6.69364 26.7148 6.38553 28.0451 5.93619 29.3424C9.16212 28.7006 11.1324 27.9575 12.0273 27.5681C12.5349 27.3472 13.1195 27.2948 13.6692 27.421C15.2447 27.7834 16.869 27.9651 18.5 27.9615C27.7407 27.9615 34.6875 22.3841 34.6875 16.0398C34.6875 9.69554 27.7407 4.1182 18.5 4.1182C9.25925 4.1182 2.3125 9.69752 2.3125 16.0398C2.3125 18.9567 3.73931 21.6629 6.19287 23.777ZM5.05281 31.536C4.50488 31.6292 3.9552 31.7146 3.404 31.7923C2.9415 31.8559 2.59 31.4426 2.77269 31.073C2.97747 30.6568 3.16566 30.2346 3.33694 29.8073L3.34387 29.7875C3.91737 28.3569 4.3845 26.7117 4.55562 25.1798C1.71819 22.7358 0 19.5369 0 16.0398C0 8.35833 8.28337 2.13126 18.5 2.13126C28.7166 2.13126 37 8.35833 37 16.0398C37 23.7213 28.7166 29.9484 18.5 29.9484C16.6676 29.9519 14.8427 29.7475 13.0726 29.3404C11.8701 29.863 9.28238 30.8147 5.05281 31.536Z" fill="black"/>
</g>
<defs>
<clipPath id="clip0_10_548">
<rect width="37" height="31.791" fill="white" transform="translate(0 0.144318)"/>
</clipPath>
</defs>
</svg>
