<svg width="50" height="50" viewBox="0 0 50 50" fill="none" xmlns="http://www.w3.org/2000/svg">
<path d="M10.7458 23.9396C10.5938 26.8479 10.7688 29.9438 8.17084 31.8917C7.57356 32.3386 7.08888 32.9189 6.75541 33.5862C6.42193 34.2535 6.24887 34.9894 6.25001 35.7354C6.25001 37.8125 7.87917 39.5834 10 39.5834H40C42.1208 39.5834 43.75 37.8125 43.75 35.7354C43.75 34.2229 43.0375 32.7979 41.8292 31.8917C39.2313 29.9438 39.4063 26.8479 39.2542 23.9396C39.0667 20.2856 37.4831 16.8431 34.8305 14.3231C32.1779 11.8031 28.6588 10.398 25 10.398C21.3412 10.398 17.8221 11.8031 15.1695 14.3231C12.5169 16.8431 10.9333 20.2856 10.7458 23.9396Z" stroke="#F7F7F7" stroke-width="1.5" stroke-linecap="round" stroke-linejoin="round"/>
<path d="M31.25 39.5834C31.25 41.241 30.5915 42.8307 29.4194 44.0028C28.2473 45.1749 26.6576 45.8334 25 45.8334C23.3424 45.8334 21.7527 45.1749 20.5806 44.0028C19.4085 42.8307 18.75 41.241 18.75 39.5834M21.875 6.51044C21.875 8.23544 23.275 10.4167 25 10.4167C26.725 10.4167 28.125 8.23544 28.125 6.51044C28.125 4.78544 26.725 4.16669 25 4.16669C23.275 4.16669 21.875 4.78544 21.875 6.51044Z" stroke="#F7F7F7" stroke-width="1.5" stroke-linecap="round" stroke-linejoin="round"/>
</svg>
