<svg width="51" height="45" viewBox="0 0 51 45" fill="none" xmlns="http://www.w3.org/2000/svg">
<path d="M35.4609 8.3999C31.1897 8.3999 27.5081 10.1223 25.5 12.9755C23.4919 10.1223 19.8103 8.3999 15.5391 8.3999C12.4757 8.40303 9.53887 9.43692 7.37274 11.2748C5.20662 13.1126 3.98807 15.6044 3.98438 18.2035C3.98438 23.036 7.57031 28.0866 14.6227 33.2115C17.879 35.5624 21.3949 37.6414 25.1215 39.4199C25.2378 39.4732 25.3678 39.501 25.5 39.501C25.6322 39.501 25.7622 39.4732 25.8785 39.4199C29.6051 37.6414 33.121 35.5624 36.3773 33.2115C43.4297 28.0866 47.0156 23.036 47.0156 18.2035C47.0119 15.6044 45.7934 13.1126 43.6273 11.2748C41.4611 9.43692 38.5243 8.40303 35.4609 8.3999ZM25.5 38.0508C22.7109 36.6986 5.57812 28.019 5.57812 18.2035C5.58129 15.9629 6.63176 13.8148 8.49911 12.2304C10.3665 10.6461 12.8982 9.75481 15.5391 9.75213C19.7446 9.75213 23.2787 11.6638 24.7629 14.7401C24.8229 14.8641 24.9251 14.9702 25.0563 15.0449C25.1876 15.1195 25.342 15.1594 25.5 15.1594C25.658 15.1594 25.8124 15.1195 25.9437 15.0449C26.0749 14.9702 26.1771 14.8641 26.2371 14.7401C27.7213 11.6638 31.2554 9.75213 35.4609 9.75213C38.1018 9.75481 40.6335 10.6461 42.5009 12.2304C44.3682 13.8148 45.4187 15.9629 45.4219 18.2035C45.4219 28.0071 28.2891 36.7053 25.5 38.0508Z" fill="black"/>
</svg>
