<svg width="51" height="44" viewBox="0 0 51 44" fill="none" xmlns="http://www.w3.org/2000/svg">
<path d="M49.7661 8.86733C48.9749 7.13207 47.8339 5.55961 46.407 4.238C44.9792 2.91241 43.2957 1.85899 41.4481 1.13501C39.5324 0.381249 37.4775 -0.00454118 35.403 4.0332e-05C32.4926 4.0332e-05 29.653 0.754822 27.1854 2.18052C26.5951 2.52157 26.0342 2.89617 25.5029 3.30431C24.9716 2.89617 24.4108 2.52157 23.8204 2.18052C21.3528 0.754822 18.5132 4.0332e-05 15.6028 4.0332e-05C13.5071 4.0332e-05 11.4763 0.380227 9.55769 1.13501C7.70401 1.86184 6.03333 2.90735 4.59879 4.238C3.17009 5.55812 2.02883 7.13095 1.23973 8.86733C0.419145 10.6732 0 12.5909 0 14.5645C0 16.4263 0.401435 18.3664 1.1984 20.34C1.86549 21.9893 2.82185 23.7002 4.04387 25.4278C5.9802 28.1618 8.64266 31.0132 11.9486 33.9037C17.427 38.6952 22.8523 42.005 23.0825 42.1392L24.4816 42.9891C25.1015 43.3637 25.8985 43.3637 26.5183 42.9891L27.9174 42.1392C28.1477 41.9995 33.567 38.6952 39.0513 33.9037C42.3573 31.0132 45.0197 28.1618 46.9561 25.4278C48.1781 23.7002 49.1403 21.9893 49.8015 20.34C50.5985 18.3664 50.9999 16.4263 50.9999 14.5645C51.0058 12.5909 50.5867 10.6732 49.7661 8.86733Z" fill="#F24E1E"/>
</svg>
